%TF.GenerationSoftware,KiCad,Pcbnew,9.0.0*%
%TF.CreationDate,2025-03-28T11:18:48-04:00*%
%TF.ProjectId,BitaxeGT-Prog,42697461-7865-4475-942d-50726f672e6b,rev?*%
%TF.SameCoordinates,Original*%
%TF.FileFunction,Copper,L2,Bot*%
%TF.FilePolarity,Positive*%
%FSLAX46Y46*%
G04 Gerber Fmt 4.6, Leading zero omitted, Abs format (unit mm)*
G04 Created by KiCad (PCBNEW 9.0.0) date 2025-03-28 11:18:48*
%MOMM*%
%LPD*%
G01*
G04 APERTURE LIST*
%TA.AperFunction,ComponentPad*%
%ADD10C,2.000000*%
%TD*%
%TA.AperFunction,SMDPad,CuDef*%
%ADD11R,0.740000X2.400000*%
%TD*%
%TA.AperFunction,Conductor*%
%ADD12C,0.200000*%
%TD*%
G04 APERTURE END LIST*
D10*
%TO.P,J4,1,Pin_1*%
%TO.N,/EN*%
X145500000Y-83700000D03*
%TO.P,J4,2,Pin_2*%
%TO.N,/3V3*%
X141900000Y-83700000D03*
%TO.P,J4,3,Pin_3*%
%TO.N,/P_TX*%
X145500000Y-87300000D03*
%TO.P,J4,4,Pin_4*%
%TO.N,/GND*%
X141900000Y-87300000D03*
%TO.P,J4,5,Pin_5*%
%TO.N,/P_RX*%
X145500000Y-90900000D03*
%TO.P,J4,6,Pin_6*%
%TO.N,/IO0*%
X141900000Y-90900000D03*
%TD*%
D11*
%TO.P,J3,1,Pin_1*%
%TO.N,/EN*%
X148055000Y-85145000D03*
%TO.P,J3,2,Pin_2*%
%TO.N,/3V3*%
X148055000Y-89045000D03*
%TO.P,J3,3,Pin_3*%
%TO.N,/P_TX*%
X149325000Y-85145000D03*
%TO.P,J3,4,Pin_4*%
%TO.N,/GND*%
X149325000Y-89045000D03*
%TO.P,J3,5,Pin_5*%
%TO.N,/P_RX*%
X150595000Y-85145000D03*
%TO.P,J3,6,Pin_6*%
%TO.N,/IO0*%
X150595000Y-89045000D03*
%TD*%
D12*
%TO.N,/EN*%
X146945000Y-85145000D02*
X145500000Y-83700000D01*
X148055000Y-85145000D02*
X146945000Y-85145000D01*
%TO.N,/P_TX*%
X148000000Y-87300000D02*
X145500000Y-87300000D01*
X149325000Y-85975000D02*
X148000000Y-87300000D01*
X149325000Y-85145000D02*
X149325000Y-85975000D01*
%TO.N,/P_RX*%
X140981054Y-82399000D02*
X140500000Y-82880054D01*
X143602000Y-89002000D02*
X145500000Y-90900000D01*
X140500000Y-84500000D02*
X141999000Y-85999000D01*
X140500000Y-82880054D02*
X140500000Y-84500000D01*
X141999000Y-85999000D02*
X142929000Y-85999000D01*
X150595000Y-84243000D02*
X148751000Y-82399000D01*
X142929000Y-85999000D02*
X143602000Y-86672000D01*
X143602000Y-86672000D02*
X143602000Y-89002000D01*
X148751000Y-82399000D02*
X140981054Y-82399000D01*
X150595000Y-85145000D02*
X150595000Y-84243000D01*
%TO.N,/3V3*%
X144125000Y-85925000D02*
X141900000Y-83700000D01*
X144125000Y-87795000D02*
X144125000Y-85925000D01*
X148055000Y-89045000D02*
X145375000Y-89045000D01*
X145375000Y-89045000D02*
X144125000Y-87795000D01*
%TO.N,/IO0*%
X150595000Y-91325000D02*
X149220000Y-92700000D01*
X143700000Y-92700000D02*
X141900000Y-90900000D01*
X149220000Y-92700000D02*
X143700000Y-92700000D01*
X150595000Y-89045000D02*
X150595000Y-91325000D01*
%TO.N,/GND*%
X146999000Y-92201000D02*
X144807000Y-92201000D01*
X149325000Y-89875000D02*
X146999000Y-92201000D01*
X144807000Y-92201000D02*
X143201000Y-90595000D01*
X143201000Y-90595000D02*
X143201000Y-88601000D01*
X143201000Y-88601000D02*
X141900000Y-87300000D01*
X149325000Y-89045000D02*
X149325000Y-89875000D01*
%TD*%
M02*
